<?xml version="1.0" encoding="utf-8"?>
<!-- Generator: Adobe Illustrator 18.1.0, SVG Export Plug-In . SVG Version: 6.00 Build 0)  -->
<svg version="1.1" xmlns="http://www.w3.org/2000/svg" x="0px" y="0px"
	 viewBox="0 0 512 512" enable-background="new 0 0 512 512" xml:space="preserve">
<g id="Layer_2">
</g>
<g id="Layer_1">
	<circle fill="#C8C8C8" cx="256" cy="256" r="256"/>
	<ellipse fill="#F2F2F2" cx="256" cy="256" rx="254" ry="255"/>
	<circle fill="#188DFB" cx="256" cy="256" r="219"/>
	<g>
		<rect x="252" y="53.8" fill="#FFFFFF" width="8" height="42"/>
		<polygon fill="#FFFFFF" points="223.6,79.4 219,80 216.3,58.3 220.9,57.7 		"/>
		<polygon fill="#FFFFFF" points="188.7,88.9 184.2,90 178.9,68.8 183.4,67.7 		"/>
		<polygon fill="#FFFFFF" points="130.6,127.9 126.9,130.7 114,113.1 117.7,110.4 		"/>
		<polygon fill="#FFFFFF" points="108.8,153.5 105.7,157 89.5,142.5 92.5,139 		"/>
		
			<rect x="151.1" y="83.6" transform="matrix(0.909 -0.4168 0.4168 0.909 -29.4859 74.1652)" fill="#FFFFFF" width="8" height="42"/>
		
			<rect x="84.1" y="164.3" transform="matrix(0.6563 -0.7545 0.7545 0.6563 -109.5111 130.1735)" fill="#FFFFFF" width="8" height="42"/>
		<polygon fill="#FFFFFF" points="288.4,79.4 293,80 295.7,58.3 291.1,57.7 		"/>
		<polygon fill="#FFFFFF" points="323.3,88.9 327.8,90 333.1,68.8 328.6,67.7 		"/>
		<polygon fill="#FFFFFF" points="381.4,127.9 385.1,130.7 398,113.1 394.3,110.4 		"/>
		<polygon fill="#FFFFFF" points="403.2,153.5 406.3,157 422.5,142.5 419.5,139 		"/>
		
			<rect x="352.9" y="83.6" transform="matrix(-0.909 -0.4168 0.4168 -0.909 637.6977 348.4456)" fill="#FFFFFF" width="8" height="42"/>
		
			<rect x="419.9" y="164.3" transform="matrix(-0.6563 -0.7545 0.7545 -0.6563 562.2646 626.7068)" fill="#FFFFFF" width="8" height="42"/>
	</g>
	<ellipse fill="#1080E9" cx="256" cy="430.2" rx="20" ry="20.2"/>
	<g>
		<circle fill="#1080E9" cx="199" cy="413" r="13.5"/>
		<circle fill="#1080E9" cx="311" cy="413" r="13.5"/>
	</g>
	<path fill="#1080E9" d="M256,104c-83.4,0-151,67.6-151,151c0,47,21.5,89,55.2,116.7c7.6-7.5,16.1-14.1,25.3-19.6
		C155.5,330.3,136,295,136,255c0-66.3,53.7-120,120-120s120,53.7,120,120c0,40-19.5,75.3-49.6,97.1c9.2,5.5,17.7,12.1,25.3,19.6
		C385.5,344,407,302,407,255C407,171.6,339.4,104,256,104z"/>
	<path fill="#1080E9" d="M256,344.5c-58.3,0-107.3,40-121.1,94c2.9,2,5.9,3.8,8.9,5.6c11.6-51.3,57.4-89.6,112.2-89.6
		s100.6,38.3,112.2,89.6c3-1.8,6-3.7,8.9-5.6C363.3,384.4,314.3,344.5,256,344.5z"/>
	<path fill="#7CBFFE" d="M256,104c-61.3,0-114,36.5-137.7,88.9c28-36.6,72.1-60.3,121.7-60.3c31.2,0,60.2,9.4,84.4,25.4l15.1-28.8
		C315.6,113.3,286.9,104,256,104z"/>
	<g>
		
		<g>
			<path fill="#FFFFFF" d="M336.7,157.3l-88.2,160.4c-16.8,3.5-29.5,18.4-29.5,36.2c0,20.4,16.6,37,37,37s37-16.6,37-37
				c0-7.8-2.4-15-6.5-20.9L336.7,157.3z"/>
		</g>
	</g>
	<circle fill="#F84E24" cx="256" cy="354" r="24"/>
</g>
</svg>
